# xmcd
#
# Track frame offsets:
#  150
#  12522
#  22825
#  34292
#  43341
#  55058
#  65870
#  76792
#
# Disc length: 1165 seconds
#
# Revision: 0
# Processed by: cddbd v1.5.1PL0 Copyright (c) Steve Scherf et al.
# Submitted via: Collectorz.com_Music_Collector 6.9
#
DISCID=64048b08
DTITLE=Draper, Rusty - Timeless Treasures
DYEAR=1900
DGENRE=Country
TTITLE0=The Shifting, Whispering Sands
TTITLE1=Freight Train
TTITLE2=Are You Satisfied
TTITLE3=In The Middle Of The House
TTITLE4=Gambler's Guitar
TTITLE5=No Help Wanted 
TTITLE6=Please Help Me, I'm Falling
TTITLE7=Let's Go Calypso
EXTD=
EXTT0=
EXTT1=
EXTT2=
EXTT3=
EXTT4=
EXTT5=
EXTT6=
EXTT7=
PLAYORDER=
